<svg width="171" height="51" viewBox="0 0 171 51" fill="none" xmlns="http://www.w3.org/2000/svg">
<path d="M36.7 49L34.66 42.404H19.496L17.388 49H0.32L19.292 1.4H35.204L54.312 49H36.7ZM31.736 31.32L27.112 18.196L22.488 31.32H31.736ZM111.848 49H93.3522L82.6762 30.912V49H66.9002V1.4H82.6762V18.74L92.4002 1.4H110.896L95.9362 24.792L111.848 49ZM144.83 50.36C137.214 50.36 130.935 48.0027 125.994 43.288C121.053 38.528 118.582 32.4987 118.582 25.2C118.582 17.9013 121.053 11.8947 125.994 7.18C130.935 2.42 137.214 0.0399981 144.83 0.0399981C151.585 0.0399981 157.274 2.03466 161.898 6.024C166.567 9.968 169.333 15.1587 170.194 21.596H154.01C153.33 19.4653 152.151 17.7653 150.474 16.496C148.842 15.1813 146.983 14.524 144.898 14.524C142.087 14.524 139.798 15.5213 138.03 17.516C136.307 19.4653 135.446 22.0267 135.446 25.2C135.446 28.3733 136.307 30.9347 138.03 32.884C139.798 34.8333 142.087 35.808 144.898 35.808C147.119 35.808 149.046 35.1053 150.678 33.7C152.355 32.2493 153.443 30.368 153.942 28.056H170.33C169.559 34.6747 166.817 40.0467 162.102 44.172C157.433 48.2973 151.675 50.36 144.83 50.36Z" fill="url(#paint0_linear_199_5)"/>
<defs>
<linearGradient id="paint0_linear_199_5" x1="1" y1="31" x2="172" y2="31" gradientUnits="userSpaceOnUse">
<stop stop-color="#EA5B0D"/>
<stop offset="1" stop-color="#F37335"/>
</linearGradient>
</defs>
</svg>
